<mxfile host="Electron" modified="2024-05-18T07:49:01.516Z" agent="Mozilla/5.0 (Windows NT 10.0; Win64; x64) AppleWebKit/537.36 (KHTML, like Gecko) draw.io/24.4.0 Chrome/120.0.6099.109 Electron/28.1.0 Safari/537.36" etag="yxb0euFtSsUSotgq8a_M" version="24.4.0" type="device">
  <diagram name="Page-1" id="K36B-8KeolQh_DIfhz86">
    <mxGraphModel dx="1047" dy="1714" grid="1" gridSize="10" guides="1" tooltips="1" connect="1" arrows="1" fold="1" page="1" pageScale="1" pageWidth="1169" pageHeight="827" math="0" shadow="0">
      <root>
        <mxCell id="0" />
        <mxCell id="1" parent="0" />
        <mxCell id="Sb-p2t8MkRQemnGIZSPA-1" value="" style="group" parent="1" vertex="1" connectable="0">
          <mxGeometry x="100" y="-722" width="911" height="617" as="geometry" />
        </mxCell>
        <mxCell id="JQlLi9H9kjLhAP4fJxrG-5" value="Books DS" style="shape=umlLifeline;perimeter=lifelinePerimeter;whiteSpace=wrap;html=1;container=0;dropTarget=0;collapsible=0;recursiveResize=0;outlineConnect=0;portConstraint=eastwest;newEdgeStyle={&quot;edgeStyle&quot;:&quot;elbowEdgeStyle&quot;,&quot;elbow&quot;:&quot;vertical&quot;,&quot;curved&quot;:0,&quot;rounded&quot;:0};" parent="Sb-p2t8MkRQemnGIZSPA-1" vertex="1">
          <mxGeometry x="811" y="27" width="100" height="590" as="geometry" />
        </mxCell>
        <mxCell id="JQlLi9H9kjLhAP4fJxrG-6" value="" style="html=1;points=[[0,0,0,0,5],[0,1,0,0,-5],[1,0,0,0,5],[1,1,0,0,-5]];perimeter=orthogonalPerimeter;outlineConnect=0;targetShapes=umlLifeline;portConstraint=eastwest;newEdgeStyle={&quot;curved&quot;:0,&quot;rounded&quot;:0};fillColor=#1ba1e2;container=0;fontColor=#ffffff;strokeColor=#006EAF;" parent="JQlLi9H9kjLhAP4fJxrG-5" vertex="1">
          <mxGeometry x="45" y="370" width="10" height="60" as="geometry" />
        </mxCell>
        <mxCell id="JQlLi9H9kjLhAP4fJxrG-3" value="" style="shape=umlLifeline;perimeter=lifelinePerimeter;whiteSpace=wrap;html=1;container=0;dropTarget=0;collapsible=0;recursiveResize=0;outlineConnect=0;portConstraint=eastwest;newEdgeStyle={&quot;curved&quot;:0,&quot;rounded&quot;:0};participant=umlActor;strokeWidth=1;" parent="Sb-p2t8MkRQemnGIZSPA-1" vertex="1">
          <mxGeometry x="140" y="37" width="20" height="457" as="geometry" />
        </mxCell>
        <mxCell id="JQlLi9H9kjLhAP4fJxrG-8" value="Librarian" style="text;html=1;align=center;verticalAlign=middle;resizable=0;points=[];autosize=1;strokeColor=none;fillColor=none;container=0;" parent="Sb-p2t8MkRQemnGIZSPA-1" vertex="1">
          <mxGeometry x="115" width="70" height="30" as="geometry" />
        </mxCell>
        <mxCell id="JQlLi9H9kjLhAP4fJxrG-4" value="" style="html=1;points=[[0,0,0,0,5],[0,1,0,0,-5],[1,0,0,0,5],[1,1,0,0,-5]];perimeter=orthogonalPerimeter;outlineConnect=0;targetShapes=umlLifeline;portConstraint=eastwest;newEdgeStyle={&quot;curved&quot;:0,&quot;rounded&quot;:0};container=0;fillColor=#1ba1e2;fontColor=#ffffff;strokeColor=#006EAF;" parent="Sb-p2t8MkRQemnGIZSPA-1" vertex="1">
          <mxGeometry x="147" y="87" width="10" height="530" as="geometry" />
        </mxCell>
        <mxCell id="AUmYcB81qlfZEUZxodqz-3" value="System menu" style="shape=umlLifeline;perimeter=lifelinePerimeter;whiteSpace=wrap;html=1;container=0;dropTarget=0;collapsible=0;recursiveResize=0;outlineConnect=0;portConstraint=eastwest;newEdgeStyle={&quot;edgeStyle&quot;:&quot;elbowEdgeStyle&quot;,&quot;elbow&quot;:&quot;vertical&quot;,&quot;curved&quot;:0,&quot;rounded&quot;:0};" parent="Sb-p2t8MkRQemnGIZSPA-1" vertex="1">
          <mxGeometry x="532" y="27" width="100" height="590" as="geometry" />
        </mxCell>
        <mxCell id="AUmYcB81qlfZEUZxodqz-6" value="" style="endArrow=classic;html=1;rounded=0;" parent="Sb-p2t8MkRQemnGIZSPA-1" target="AUmYcB81qlfZEUZxodqz-4" edge="1">
          <mxGeometry width="50" height="50" relative="1" as="geometry">
            <mxPoint x="157" y="277" as="sourcePoint" />
            <mxPoint x="572" y="277" as="targetPoint" />
          </mxGeometry>
        </mxCell>
        <mxCell id="AUmYcB81qlfZEUZxodqz-7" value="Choose add a new book&amp;nbsp;option from the menu&lt;span style=&quot;background-color: initial;&quot;&gt;(choice)&lt;/span&gt;" style="text;html=1;align=center;verticalAlign=middle;resizable=0;points=[];autosize=1;strokeColor=none;fillColor=none;" parent="Sb-p2t8MkRQemnGIZSPA-1" vertex="1">
          <mxGeometry x="215" y="243" width="310" height="30" as="geometry" />
        </mxCell>
        <mxCell id="AUmYcB81qlfZEUZxodqz-8" value="Input/output form" style="shape=umlLifeline;perimeter=lifelinePerimeter;whiteSpace=wrap;html=1;container=0;dropTarget=0;collapsible=0;recursiveResize=0;outlineConnect=0;portConstraint=eastwest;newEdgeStyle={&quot;edgeStyle&quot;:&quot;elbowEdgeStyle&quot;,&quot;elbow&quot;:&quot;vertical&quot;,&quot;curved&quot;:0,&quot;rounded&quot;:0};" parent="Sb-p2t8MkRQemnGIZSPA-1" vertex="1">
          <mxGeometry x="682" y="27" width="100" height="590" as="geometry" />
        </mxCell>
        <mxCell id="AUmYcB81qlfZEUZxodqz-9" value="" style="html=1;points=[[0,0,0,0,5],[0,1,0,0,-5],[1,0,0,0,5],[1,1,0,0,-5]];perimeter=orthogonalPerimeter;outlineConnect=0;targetShapes=umlLifeline;portConstraint=eastwest;newEdgeStyle={&quot;curved&quot;:0,&quot;rounded&quot;:0};fillColor=#1ba1e2;container=0;fontColor=#ffffff;strokeColor=#006EAF;" parent="AUmYcB81qlfZEUZxodqz-8" vertex="1">
          <mxGeometry x="45" y="90" width="10" height="450" as="geometry" />
        </mxCell>
        <mxCell id="AUmYcB81qlfZEUZxodqz-11" value="enter added book info(book info)" style="text;html=1;align=center;verticalAlign=middle;resizable=0;points=[];autosize=1;strokeColor=none;fillColor=none;" parent="Sb-p2t8MkRQemnGIZSPA-1" vertex="1">
          <mxGeometry x="258" y="288" width="200" height="30" as="geometry" />
        </mxCell>
        <mxCell id="AUmYcB81qlfZEUZxodqz-13" value="" style="endArrow=classic;html=1;rounded=0;" parent="Sb-p2t8MkRQemnGIZSPA-1" edge="1">
          <mxGeometry width="50" height="50" relative="1" as="geometry">
            <mxPoint x="157" y="421.99999999999994" as="sourcePoint" />
            <mxPoint x="855" y="421.99999999999983" as="targetPoint" />
          </mxGeometry>
        </mxCell>
        <mxCell id="AUmYcB81qlfZEUZxodqz-14" value="Insert into data store(book info)" style="text;html=1;align=center;verticalAlign=middle;resizable=0;points=[];autosize=1;strokeColor=none;fillColor=none;rotation=0;" parent="Sb-p2t8MkRQemnGIZSPA-1" vertex="1">
          <mxGeometry x="263" y="384" width="190" height="30" as="geometry" />
        </mxCell>
        <mxCell id="AUmYcB81qlfZEUZxodqz-15" value="" style="html=1;labelBackgroundColor=#ffffff;startArrow=none;startFill=0;startSize=6;endArrow=classic;endFill=1;endSize=6;jettySize=auto;orthogonalLoop=1;strokeWidth=1;dashed=1;fontSize=14;rounded=0;" parent="Sb-p2t8MkRQemnGIZSPA-1" edge="1" source="AUmYcB81qlfZEUZxodqz-9">
          <mxGeometry width="60" height="60" relative="1" as="geometry">
            <mxPoint x="720" y="469" as="sourcePoint" />
            <mxPoint x="157" y="468.99999999999994" as="targetPoint" />
          </mxGeometry>
        </mxCell>
        <mxCell id="AUmYcB81qlfZEUZxodqz-16" value="book addition confirmation(confirmation message)" style="text;align=center;verticalAlign=middle;resizable=0;points=[];autosize=1;strokeColor=none;fillColor=none;" parent="Sb-p2t8MkRQemnGIZSPA-1" vertex="1">
          <mxGeometry x="225" y="427" width="290" height="30" as="geometry" />
        </mxCell>
        <mxCell id="AUmYcB81qlfZEUZxodqz-17" value="alt" style="text;html=1;align=center;verticalAlign=middle;resizable=0;points=[];autosize=1;strokeColor=none;fillColor=none;" parent="Sb-p2t8MkRQemnGIZSPA-1" vertex="1">
          <mxGeometry x="27" y="360" width="40" height="30" as="geometry" />
        </mxCell>
        <mxCell id="AUmYcB81qlfZEUZxodqz-18" value="[valid entry data]" style="text;html=1;align=center;verticalAlign=middle;resizable=0;points=[];autosize=1;strokeColor=none;fillColor=none;" parent="Sb-p2t8MkRQemnGIZSPA-1" vertex="1">
          <mxGeometry x="38" y="384" width="110" height="30" as="geometry" />
        </mxCell>
        <mxCell id="AUmYcB81qlfZEUZxodqz-19" value="[invalid entry data]" style="text;html=1;align=center;verticalAlign=middle;resizable=0;points=[];autosize=1;strokeColor=none;fillColor=none;" parent="Sb-p2t8MkRQemnGIZSPA-1" vertex="1">
          <mxGeometry x="33" y="475" width="120" height="30" as="geometry" />
        </mxCell>
        <mxCell id="AUmYcB81qlfZEUZxodqz-20" value="" style="html=1;labelBackgroundColor=#ffffff;startArrow=none;startFill=0;startSize=6;endArrow=classic;endFill=1;endSize=6;jettySize=auto;orthogonalLoop=1;strokeWidth=1;dashed=1;fontSize=14;rounded=0;" parent="Sb-p2t8MkRQemnGIZSPA-1" source="AUmYcB81qlfZEUZxodqz-9" edge="1">
          <mxGeometry width="60" height="60" relative="1" as="geometry">
            <mxPoint x="852" y="531" as="sourcePoint" />
            <mxPoint x="157" y="531" as="targetPoint" />
          </mxGeometry>
        </mxCell>
        <mxCell id="AUmYcB81qlfZEUZxodqz-21" value="show errorr message and ask &#xa;to renter book info(message )" style="text;align=center;verticalAlign=middle;resizable=0;points=[];autosize=1;strokeColor=none;fillColor=none;" parent="Sb-p2t8MkRQemnGIZSPA-1" vertex="1">
          <mxGeometry x="285" y="483" width="180" height="40" as="geometry" />
        </mxCell>
        <mxCell id="AUmYcB81qlfZEUZxodqz-23" value="" style="endArrow=classic;html=1;rounded=0;" parent="Sb-p2t8MkRQemnGIZSPA-1" edge="1">
          <mxGeometry width="50" height="50" relative="1" as="geometry">
            <mxPoint x="158" y="602" as="sourcePoint" />
            <mxPoint x="577" y="602" as="targetPoint" />
          </mxGeometry>
        </mxCell>
        <mxCell id="AUmYcB81qlfZEUZxodqz-24" value="Log out()" style="text;html=1;align=center;verticalAlign=middle;resizable=0;points=[];autosize=1;strokeColor=none;fillColor=none;" parent="Sb-p2t8MkRQemnGIZSPA-1" vertex="1">
          <mxGeometry x="323" y="568" width="70" height="30" as="geometry" />
        </mxCell>
        <mxCell id="AUmYcB81qlfZEUZxodqz-4" value="" style="html=1;points=[[0,0,0,0,5],[0,1,0,0,-5],[1,0,0,0,5],[1,1,0,0,-5]];perimeter=orthogonalPerimeter;outlineConnect=0;targetShapes=umlLifeline;portConstraint=eastwest;newEdgeStyle={&quot;curved&quot;:0,&quot;rounded&quot;:0};fillColor=#1ba1e2;container=0;fontColor=#ffffff;strokeColor=#006EAF;" parent="Sb-p2t8MkRQemnGIZSPA-1" vertex="1">
          <mxGeometry x="577" y="77" width="10" height="540" as="geometry" />
        </mxCell>
        <mxCell id="AUmYcB81qlfZEUZxodqz-26" value="" style="endArrow=classic;html=1;rounded=0;" parent="Sb-p2t8MkRQemnGIZSPA-1" target="AUmYcB81qlfZEUZxodqz-4" edge="1">
          <mxGeometry width="50" height="50" relative="1" as="geometry">
            <mxPoint x="158" y="107" as="sourcePoint" />
            <mxPoint x="573" y="107" as="targetPoint" />
          </mxGeometry>
        </mxCell>
        <mxCell id="AUmYcB81qlfZEUZxodqz-27" value="Open the system()" style="text;html=1;align=center;verticalAlign=middle;resizable=0;points=[];autosize=1;strokeColor=none;fillColor=none;" parent="Sb-p2t8MkRQemnGIZSPA-1" vertex="1">
          <mxGeometry x="300" y="67" width="120" height="30" as="geometry" />
        </mxCell>
        <mxCell id="AUmYcB81qlfZEUZxodqz-28" value="" style="endArrow=classic;html=1;rounded=0;" parent="Sb-p2t8MkRQemnGIZSPA-1" edge="1">
          <mxGeometry width="50" height="50" relative="1" as="geometry">
            <mxPoint x="157" y="152" as="sourcePoint" />
            <mxPoint x="727" y="152" as="targetPoint" />
          </mxGeometry>
        </mxCell>
        <mxCell id="qogOphrt53on1upXUYAq-1" value="Log in into the system&lt;div&gt;(username,password)&lt;/div&gt;" style="text;html=1;align=center;verticalAlign=middle;resizable=0;points=[];autosize=1;strokeColor=none;fillColor=none;" parent="Sb-p2t8MkRQemnGIZSPA-1" vertex="1">
          <mxGeometry x="292" y="108" width="140" height="40" as="geometry" />
        </mxCell>
        <mxCell id="qogOphrt53on1upXUYAq-2" value="" style="rounded=0;whiteSpace=wrap;html=1;fillColor=none;" parent="Sb-p2t8MkRQemnGIZSPA-1" vertex="1">
          <mxGeometry x="10" y="168" width="750" height="70" as="geometry" />
        </mxCell>
        <mxCell id="qogOphrt53on1upXUYAq-3" value="opt" style="text;html=1;align=center;verticalAlign=middle;resizable=0;points=[];autosize=1;strokeColor=none;fillColor=none;" parent="Sb-p2t8MkRQemnGIZSPA-1" vertex="1">
          <mxGeometry y="162" width="40" height="30" as="geometry" />
        </mxCell>
        <mxCell id="qogOphrt53on1upXUYAq-4" value="[invalid login credentials]" style="text;html=1;align=center;verticalAlign=middle;resizable=0;points=[];autosize=1;strokeColor=none;fillColor=none;" parent="Sb-p2t8MkRQemnGIZSPA-1" vertex="1">
          <mxGeometry x="3" y="193" width="150" height="30" as="geometry" />
        </mxCell>
        <mxCell id="qogOphrt53on1upXUYAq-5" value="" style="html=1;labelBackgroundColor=#ffffff;startArrow=none;startFill=0;startSize=6;endArrow=classic;endFill=1;endSize=6;jettySize=auto;orthogonalLoop=1;strokeWidth=1;dashed=1;fontSize=14;rounded=0;" parent="Sb-p2t8MkRQemnGIZSPA-1" edge="1">
          <mxGeometry width="60" height="60" relative="1" as="geometry">
            <mxPoint x="727" y="222" as="sourcePoint" />
            <mxPoint x="157" y="222" as="targetPoint" />
          </mxGeometry>
        </mxCell>
        <mxCell id="dBYR0yPxDUeKHXohwZqm-2" value="show errorr&amp;nbsp;message and ask&amp;nbsp;&lt;div&gt;to renter login credentials(message&amp;nbsp;)&lt;/div&gt;" style="text;align=center;verticalAlign=middle;resizable=0;points=[];autosize=1;strokeColor=none;fillColor=none;strokeWidth=1;perimeterSpacing=0;spacing=2;spacingTop=0;spacingLeft=0;spacingBottom=0;textShadow=1;html=1;" parent="Sb-p2t8MkRQemnGIZSPA-1" vertex="1">
          <mxGeometry x="252" y="183" width="220" height="40" as="geometry" />
        </mxCell>
        <mxCell id="dBYR0yPxDUeKHXohwZqm-3" value="" style="endArrow=classic;html=1;rounded=0;" parent="Sb-p2t8MkRQemnGIZSPA-1" edge="1">
          <mxGeometry width="50" height="50" relative="1" as="geometry">
            <mxPoint x="157" y="326" as="sourcePoint" />
            <mxPoint x="727" y="326" as="targetPoint" />
          </mxGeometry>
        </mxCell>
        <mxCell id="AUmYcB81qlfZEUZxodqz-12" value="" style="rounded=0;whiteSpace=wrap;html=1;fillColor=none;" parent="Sb-p2t8MkRQemnGIZSPA-1" vertex="1">
          <mxGeometry x="39" y="365" width="850" height="192" as="geometry" />
        </mxCell>
      </root>
    </mxGraphModel>
  </diagram>
</mxfile>
